<?xml version="1.0" encoding="UTF-8" standalone="no"?>
<!DOCTYPE svg PUBLIC "-//W3C//DTD SVG 1.1//EN"
 "http://www.w3.org/Graphics/SVG/1.1/DTD/svg11.dtd">
<!-- Generated by graphviz version 2.40.1 (20161225.0304)
 -->
<!-- Title: Diagram Pages: 1 -->
<svg width="165pt" height="232pt"
 viewBox="0.00 0.00 165.24 232.00" xmlns="http://www.w3.org/2000/svg" xmlns:xlink="http://www.w3.org/1999/xlink">
<g id="graph0" class="graph" transform="scale(1 1) rotate(0) translate(4 228)">
<title>Diagram</title>
<polygon fill="#ffffff" stroke="transparent" points="-4,4 -4,-228 161.2417,-228 161.2417,4 -4,4"/>
<!-- User -->
<g id="node1" class="node">
<title>User</title>
<polygon fill="none" stroke="#000000" points="0,-137.5 0,-223.5 114.3828,-223.5 114.3828,-137.5 0,-137.5"/>
<text text-anchor="middle" x="57.1914" y="-208.3" font-family="Times,serif" font-size="14.00" fill="#000000">User</text>
<polyline fill="none" stroke="#000000" points="0,-201.5 114.3828,-201.5 "/>
<text text-anchor="start" x="8" y="-186.3" font-family="Times,serif" font-size="14.00" fill="#000000">id: id</text>
<text text-anchor="start" x="8" y="-172.3" font-family="Times,serif" font-size="14.00" fill="#000000">first_name: string</text>
<text text-anchor="start" x="8" y="-158.3" font-family="Times,serif" font-size="14.00" fill="#000000">surname: string</text>
<text text-anchor="start" x="8" y="-144.3" font-family="Times,serif" font-size="14.00" fill="#000000">email: string</text>
</g>
<!-- Post -->
<g id="node2" class="node">
<title>Post</title>
<polygon fill="none" stroke="#000000" points="13.2241,-.5 13.2241,-86.5 101.1587,-86.5 101.1587,-.5 13.2241,-.5"/>
<text text-anchor="middle" x="57.1914" y="-71.3" font-family="Times,serif" font-size="14.00" fill="#000000">Post</text>
<polyline fill="none" stroke="#000000" points="13.2241,-64.5 101.1587,-64.5 "/>
<text text-anchor="start" x="21.2241" y="-49.3" font-family="Times,serif" font-size="14.00" fill="#000000">id: id</text>
<text text-anchor="start" x="21.2241" y="-35.3" font-family="Times,serif" font-size="14.00" fill="#000000">title: string</text>
<text text-anchor="start" x="21.2241" y="-21.3" font-family="Times,serif" font-size="14.00" fill="#000000">body: string</text>
<text text-anchor="start" x="21.2241" y="-7.3" font-family="Times,serif" font-size="14.00" fill="#000000">author_id: id</text>
</g>
<!-- User&#45;&gt;Post -->
<g id="edge1" class="edge">
<title>User&#45;&gt;Post</title>
<path fill="none" stroke="#000000" d="M57.1914,-125.1001C57.1914,-112.261 57.1914,-98.7842 57.1914,-86.5657"/>
<polygon fill="none" stroke="#000000" points="57.1915,-125.1523 61.1915,-131.1524 57.1914,-137.1523 53.1915,-131.1523 57.1915,-125.1523"/>
<text text-anchor="middle" x="71.5845" y="-107.8" font-family="Times,serif" font-size="14.00" fill="#000000">posts</text>
</g>
<!-- Post&#45;&gt;Post -->
<g id="edge2" class="edge">
<title>Post&#45;&gt;Post</title>
<path fill="none" stroke="#000000" d="M112.7936,-52.8473C116.7453,-50.7247 119.1587,-47.6089 119.1587,-43.5 119.1587,-36.1953 111.5313,-32.0294 101.1926,-31.0021"/>
<polygon fill="none" stroke="#000000" points="112.7731,-52.8528 108.0312,-58.2855 101.1926,-55.9979 105.9345,-50.5651 112.7731,-52.8528"/>
<text text-anchor="middle" x="138.2002" y="-39.3" font-family="Times,serif" font-size="14.00" fill="#000000">related</text>
</g>
</g>
</svg>
